<?xml version="1.0" encoding="UTF-8"?>
<!DOCTYPE svg PUBLIC "-//W3C//DTD SVG 1.0//EN" "http://www.w3.org/TR/2001/REC-SVG-20010904/DTD/svg10.dtd">
<!-- Creator: CorelDRAW 2021.5 -->
<svg xmlns="http://www.w3.org/2000/svg" xml:space="preserve" width="2.0814cm" height="2.0814cm" version="1.0" style="shape-rendering:geometricPrecision; text-rendering:geometricPrecision; image-rendering:optimizeQuality; fill-rule:evenodd; clip-rule:evenodd"
viewBox="0 0 1317.83 1317.83"
 xmlns:xlink="http://www.w3.org/1999/xlink"
 xmlns:xodm="http://www.corel.com/coreldraw/odm/2003">
 <defs>
  <style type="text/css">
   <![CDATA[
    .fil0 {fill:none}
    .fil1 {fill:#626262}
   ]]>
  </style>
 </defs>
 <g id="Layer_x0020_1">
  <metadata id="CorelCorpID_0Corel-Layer"/>
  <g id="_2191269762256">
   <g>
    <rect class="fil0" x="-0" y="-0" width="1317.83" height="1317.83"/>
   </g>
   <path class="fil1" d="M425.58 285.59l-3.07 0c-41.37,0 -77.01,0 -105.55,3.84 -30.59,4.11 -59.91,13.38 -83.7,37.17 -23.78,23.78 -33.06,53.1 -37.17,83.7 -3.84,28.54 -3.84,64.19 -3.84,105.55l0 3.08 0 283.07c0,41.36 -0.01,77.01 3.84,105.55 4.11,30.59 13.38,59.91 37.17,83.7 23.79,23.79 53.11,33.06 83.7,37.18 28.54,3.84 64.18,3.84 105.55,3.83l472.8 0c41.37,0.01 77.02,0.01 105.56,-3.83 30.59,-4.12 59.91,-13.39 83.7,-37.18 23.79,-23.78 33.06,-53.1 37.17,-83.7 3.84,-28.54 3.84,-64.19 3.84,-105.55l0 -286.14c0,-41.37 0,-77.01 -3.84,-105.55 -4.12,-30.59 -13.38,-59.91 -37.17,-83.7 -23.78,-23.79 -53.1,-33.06 -83.7,-37.17 -28.54,-3.84 -64.19,-3.84 -105.56,-3.84l-469.73 0zm46.67 186.66c-51.54,0 -93.33,41.79 -93.33,93.33 0,51.55 41.79,93.33 93.33,93.33 51.54,0 93.33,-41.78 93.33,-93.33 0,-51.54 -41.79,-93.33 -93.33,-93.33zm-93.33 280c0,-25.78 20.89,-46.66 46.67,-46.66l0 0 0.01 0 0.03 0 0.11 0 0.45 0 1.73 0 6.48 0 22.45 0 62.07 0c67.06,0 128.91,10.83 163.85,69.43 13.19,22.14 5.96,50.78 -16.18,63.98 -22.14,13.2 -50.78,5.95 -63.98,-16.18 -7.42,-12.44 -21.12,-23.9 -83.68,-23.9l-62.07 0 -22.45 0 -6.48 0 -1.73 0 -0.45 0 -0.11 0 -0.03 0 -0.01 0 -0.01 0c-25.77,0 -46.66,-20.89 -46.66,-46.66zm280 -280c-25.78,0 -46.67,20.89 -46.67,46.67 0,25.77 20.89,46.66 46.67,46.66l233.33 0c25.78,0 46.67,-20.89 46.67,-46.66 0,-25.78 -20.89,-46.67 -46.67,-46.67l-233.33 0zm0 186.66c0,-25.78 20.89,-46.66 46.66,-46.66l186.66 0c25.78,0 46.67,20.89 46.67,46.66 0,25.78 -20.89,46.67 -46.67,46.67l-186.66 0c-25.77,0 -46.66,-20.89 -46.66,-46.67zm139.99 93.33c-25.77,0 -46.66,20.89 -46.66,46.66 0,25.78 20.89,46.67 46.66,46.67l93.33 0c25.78,0 46.67,-20.89 46.67,-46.67 0,-25.77 -20.89,-46.66 -46.67,-46.66l-93.33 0z"/>
  </g>
 </g>
</svg>
