<?xml version="1.0" encoding="UTF-8"?>
<!DOCTYPE svg PUBLIC "-//W3C//DTD SVG 1.0//EN" "http://www.w3.org/TR/2001/REC-SVG-20010904/DTD/svg10.dtd">
<!-- Creator: CorelDRAW 2021.5 -->
<svg xmlns="http://www.w3.org/2000/svg" xml:space="preserve" width="2.0814cm" height="2.0814cm" version="1.0" style="shape-rendering:geometricPrecision; text-rendering:geometricPrecision; image-rendering:optimizeQuality; fill-rule:evenodd; clip-rule:evenodd"
viewBox="0 0 1634.74 1634.74"
 xmlns:xlink="http://www.w3.org/1999/xlink"
 xmlns:xodm="http://www.corel.com/coreldraw/odm/2003">
 <defs>
  <style type="text/css">
   <![CDATA[
    .fil0 {fill:none}
    .fil1 {fill:#626262;fill-rule:nonzero}
   ]]>
  </style>
 </defs>
 <g id="Layer_x0020_1">
  <metadata id="CorelCorpID_0Corel-Layer"/>
  <g id="_2186025297456">
   <rect class="fil0" x="-0" y="-0" width="1634.74" height="1634.74"/>
  </g>
  <g id="_2186025298992">
   <g id="__xd83d__xdd0d_-Product-Icons">
    <g id="ic_fluent_people_team_28_filled">
     <path id="__xd83c__xdfa8_-Color" class="fil1" d="M998.46 672.64c46.63,0 84.42,37.79 84.42,84.42l0 325.57c0,146.56 -118.81,265.37 -265.37,265.37 -146.56,0 -265.37,-118.82 -265.37,-265.37l0 -325.57c0,-46.63 37.79,-84.42 84.42,-84.42l361.9 0zm-675.56 0l211.39 -0.09c-16.88,20.4 -27.77,45.94 -29.98,73.91l-0.42 10.6 0 325.57c0,54.67 13.99,106.08 38.59,150.84 -26.58,11.6 -55.97,18.06 -86.87,18.06 -119.92,0 -217.14,-97.22 -217.14,-217.15l0 -277.32c0,-46.63 37.79,-84.42 84.42,-84.42zm777.83 -0.09l211.11 0.09c46.62,0 84.42,37.79 84.42,84.42l0 277.38c0,119.89 -97.19,217.09 -217.08,217.09 -30.83,0 -60.16,-6.43 -86.72,-18.02l2.69 -4.88c20.68,-39.25 33.28,-83.41 35.59,-130.28l0.38 -15.72 0 -325.57c0,-32.12 -11.41,-61.57 -30.4,-84.52zm-283.36 -385.83c93.24,0 168.84,75.6 168.84,168.84 0,93.25 -75.6,168.85 -168.84,168.85 -93.25,0 -168.85,-75.6 -168.85,-168.85 0,-93.24 75.6,-168.84 168.85,-168.84zm386.07 48.24c79.93,0 144.72,64.8 144.72,144.73 0,79.92 -64.79,144.72 -144.72,144.72 -79.93,0 -144.72,-64.8 -144.72,-144.72 0,-79.93 64.79,-144.73 144.72,-144.73zm-772.14 0c79.93,0 144.73,64.8 144.73,144.73 0,79.92 -64.8,144.72 -144.73,144.72 -79.92,0 -144.72,-64.8 -144.72,-144.72 0,-79.93 64.8,-144.73 144.72,-144.73z"/>
    </g>
   </g>
  </g>
 </g>
</svg>
