<?xml version="1.0" encoding="UTF-8"?>
<!DOCTYPE svg PUBLIC "-//W3C//DTD SVG 1.0//EN" "http://www.w3.org/TR/2001/REC-SVG-20010904/DTD/svg10.dtd">
<!-- Creator: CorelDRAW 2021.5 -->
<svg xmlns="http://www.w3.org/2000/svg" xml:space="preserve" width="4.3522cm" height="4.3522cm" version="1.0" style="shape-rendering:geometricPrecision; text-rendering:geometricPrecision; image-rendering:optimizeQuality; fill-rule:evenodd; clip-rule:evenodd"
viewBox="0 0 3582.14 3582.14"
 xmlns:xlink="http://www.w3.org/1999/xlink"
 xmlns:xodm="http://www.corel.com/coreldraw/odm/2003">
 <defs>
  <style type="text/css">
   <![CDATA[
    .fil1 {fill:none}
    .fil0 {fill:url(#id0)}
   ]]>
  </style>
  <linearGradient id="id0" gradientUnits="userSpaceOnUse" x1="2389.63" y1="2923.9" x2="1192.51" y2="658.23">
   <stop offset="0" style="stop-opacity:1; stop-color:#1649D8"/>
   <stop offset="1" style="stop-opacity:1; stop-color:#00A1E6"/>
  </linearGradient>
 </defs>
 <g id="Layer_x0020_1">
  <metadata id="CorelCorpID_0Corel-Layer"/>
  <g id="_1671393030832">
   <path class="fil0" d="M2203.71 2934.73l-397.5 0 -1289.73 0c-112.75,0 -215.18,-46.06 -289.38,-120.25 -74.19,-74.19 -120.25,-176.62 -120.25,-289.38l0 -1468.08c0,-112.74 46.05,-215.17 120.25,-289.37 74.2,-74.2 176.63,-120.25 289.38,-120.25l214.69 0 214.68 0 860.37 0 397.5 0 796.59 0 32.68 0 32.68 0c112.75,0 215.18,46.05 289.38,120.25 74.2,74.2 120.25,176.63 120.25,289.37l0 1468.08c0,112.76 -46.06,215.19 -120.25,289.38 -74.2,74.19 -176.63,120.25 -289.38,120.25l-861.95 0zm-160.99 -806.27l898.32 0c71.93,0 130.77,58.84 130.77,130.78l0 0.01c0,71.94 -58.84,130.77 -130.77,130.77l-898.32 0c-71.93,0 -130.77,-58.83 -130.77,-130.77l0 -0.01c0,-71.94 58.84,-130.78 130.77,-130.78zm0 -468.18l898.32 0c71.93,0 130.77,58.84 130.77,130.78l0 0.01c0,71.94 -58.84,130.77 -130.77,130.77l-898.32 0c-71.93,0 -130.77,-58.83 -130.77,-130.77l0 -0.01c0,-71.94 58.84,-130.78 130.77,-130.78zm0 -468.17l898.32 0c71.93,0 130.77,58.84 130.77,130.78l0 0.01c0,71.94 -58.84,130.77 -130.77,130.77l-898.32 0c-71.93,0 -130.77,-58.83 -130.77,-130.77l0 -0.01c0,-71.94 58.84,-130.78 130.77,-130.78zm-620.87 295.11c0,167.77 -136.06,303.83 -303.83,303.83 -167.77,0 -303.83,-136.06 -303.83,-303.83 0,-167.78 136.06,-303.83 303.83,-303.83 167.77,0 303.83,136.05 303.83,303.83zm-133.32 328.51c258.96,75.66 437.08,313.14 437.15,582.96l-1215.34 0.03c0,-269.83 178.22,-507.3 437.12,-582.95l170.55 255.75 170.51 -255.79zm915.18 -977.44l-397.5 0 -860.37 0 -214.68 0 -214.69 0c-60.05,0 -114.72,24.63 -154.4,64.32 -39.7,39.69 -64.33,94.36 -64.33,154.4l0 1468.08c0,60.05 24.63,114.72 64.33,154.41 39.68,39.69 94.35,64.32 154.4,64.32l1289.73 0 397.5 0 861.95 0c60.05,0 114.72,-24.63 154.4,-64.32 39.7,-39.69 64.33,-94.36 64.33,-154.41l0 -1468.08c0,-60.04 -24.63,-114.71 -64.33,-154.4 -39.68,-39.69 -94.35,-64.32 -154.4,-64.32l-32.68 0 -32.68 0 -796.59 0z"/>
   <rect class="fil1" width="3582.14" height="3582.14"/>
  </g>
 </g>
</svg>
