<?xml version="1.0" encoding="UTF-8"?>
<!DOCTYPE svg PUBLIC "-//W3C//DTD SVG 1.0//EN" "http://www.w3.org/TR/2001/REC-SVG-20010904/DTD/svg10.dtd">
<!-- Creator: CorelDRAW 2021.5 -->
<svg xmlns="http://www.w3.org/2000/svg" xml:space="preserve" width="4.3522cm" height="4.3522cm" version="1.0" style="shape-rendering:geometricPrecision; text-rendering:geometricPrecision; image-rendering:optimizeQuality; fill-rule:evenodd; clip-rule:evenodd"
viewBox="0 0 3269.63 3269.63"
 xmlns:xlink="http://www.w3.org/1999/xlink"
 xmlns:xodm="http://www.corel.com/coreldraw/odm/2003">
 <defs>
  <style type="text/css">
   <![CDATA[
    .fil0 {fill:none}
    .fil1 {fill:url(#id0)}
   ]]>
  </style>
  <linearGradient id="id0" gradientUnits="userSpaceOnUse" x1="2151.14" y1="2641.49" x2="1118.51" y2="628.14">
   <stop offset="0" style="stop-opacity:1; stop-color:#1649D8"/>
   <stop offset="1" style="stop-opacity:1; stop-color:#00A1E6"/>
  </linearGradient>
 </defs>
 <g id="Layer_x0020_1">
  <metadata id="CorelCorpID_0Corel-Layer"/>
  <g id="_1671643216160">
   <rect class="fil0" width="3269.63" height="3269.63"/>
   <path class="fil1" d="M949.47 2198.52l-574.64 0c-187.09,0 -196.81,-284.28 3.64,-284.28l495.67 0 287.93 -420.35c83.83,-116.63 181.02,-171.29 317.08,-171.29l426.42 0c136.07,0 232.04,52.24 317.08,171.29l287.93 420.35 500.53 0c200.46,0 187.09,284.28 6.07,284.28l-574.64 0c-44.95,0 -99.62,-15.8 -132.42,-64.39l-219.89 -313.44 -1.22 817.62 -786.04 0 -1.21 -817.62 -217.47 313.44c-35.23,47.38 -89.9,64.39 -134.85,64.39zm1909.79 -950.04l53.46 -137.29 -250.27 0 44.96 137.29 151.85 0zm53.46 44.95l-250.27 -1.21 0 1.21c-87.47,44.95 -147,136.07 -147,240.55 0,150.64 121.49,270.92 270.92,270.92 150.64,0 270.92,-121.49 270.92,-270.92 2.43,-104.48 -57.1,-195.6 -144.57,-240.55zm-220.19 248.23l42.66 0c35.47,0 57.54,-13.48 66.14,-40.43l-120.87 0 0 -34.14 123.02 0c-2.07,-11.99 -7.94,-21.41 -17.61,-28.35 -9.59,-6.95 -22.57,-10.42 -39.1,-10.42l-66.31 0 0 -34.64 211.89 0 0 34.64 -61.76 0c8.85,11 14.3,23.89 16.2,38.77l45.56 0 0 34.14 -47.46 0c-4.88,23.4 -15.87,41.42 -33.07,54.07 -17.2,12.73 -36.38,19.01 -57.54,19.01l-3.64 0 108.8 126.99 -0.5 2.15 -50.18 0 -116.24 -134.68 0 -27.11zm-2021.27 -640.64l83.83 -222.33 -403.34 0 70.47 222.33 249.05 0zm83.83 72.89l0 -1.21 -405.77 0 0 1.21c-142.14,72.89 -236.9,221.11 -236.9,391.2 0,244.19 196.81,441 441,441 244.19,0 441,-196.82 441,-441 0,-170.09 -97.19,-318.3 -239.34,-391.2zm-357.59 406.26l69.09 0c57.44,0 93.19,-21.82 107.11,-65.47l-195.76 0 0 -55.3 199.24 0c-3.35,-19.41 -12.86,-34.68 -28.53,-45.92 -15.53,-11.25 -36.55,-16.87 -63.33,-16.87l-107.39 0 0 -56.1 343.18 0 0 56.1 -100.02 0c14.33,17.81 23.17,38.7 26.25,62.8l73.77 0 0 55.3 -76.85 0c-7.9,37.89 -25.71,67.08 -53.56,87.57 -27.86,20.62 -58.91,30.79 -93.19,30.79l-5.89 0 176.21 205.67 -0.8 3.48 -81.28 0 -188.26 -218.12 0 -43.92zm1293.05 -109.82c177.37,0 319.51,-142.15 319.51,-319.52 0,-177.37 -142.14,-319.51 -319.51,-319.51 -177.37,0 -319.51,142.14 -319.51,319.51 0,177.37 142.14,319.52 319.51,319.52z"/>
  </g>
 </g>
</svg>
