<?xml version="1.0" encoding="UTF-8"?>
<!DOCTYPE svg PUBLIC "-//W3C//DTD SVG 1.0//EN" "http://www.w3.org/TR/2001/REC-SVG-20010904/DTD/svg10.dtd">
<!-- Creator: CorelDRAW 2021.5 -->
<svg xmlns="http://www.w3.org/2000/svg" xml:space="preserve" width="4.3522cm" height="4.3522cm" version="1.0" style="shape-rendering:geometricPrecision; text-rendering:geometricPrecision; image-rendering:optimizeQuality; fill-rule:evenodd; clip-rule:evenodd"
viewBox="0 0 4175.04 4175.04"
 xmlns:xlink="http://www.w3.org/1999/xlink"
 xmlns:xodm="http://www.corel.com/coreldraw/odm/2003">
 <defs>
  <style type="text/css">
   <![CDATA[
    .fil0 {fill:none}
    .fil1 {fill:url(#id0)}
   ]]>
  </style>
  <linearGradient id="id0" gradientUnits="userSpaceOnUse" x1="3135.05" y1="3427.72" x2="1039.98" y2="747.33">
   <stop offset="0" style="stop-opacity:1; stop-color:#1649D8"/>
   <stop offset="1" style="stop-opacity:1; stop-color:#00A1E6"/>
  </linearGradient>
 </defs>
 <g id="Layer_x0020_1">
  <metadata id="CorelCorpID_0Corel-Layer"/>
  <g id="_1671428094432">
   <rect class="fil0" width="4175.04" height="4175.04"/>
   <path class="fil1" d="M509.54 3791.44l2019.45 0c-249.31,-172.09 -412.74,-459.72 -412.74,-785.57 0,-278.38 119.28,-528.89 309.49,-703.27 -832.19,-232.77 -2034.47,28.76 -2034.47,784.81l0 557.48c0,80.58 53.23,146.54 118.27,146.54zm2560.62 -1499.16c394.11,0 713.6,319.49 713.6,713.6 0,394.11 -319.49,713.6 -713.6,713.6 -394.11,0 -713.6,-319.49 -713.6,-713.6 0,-394.11 319.49,-713.6 713.6,-713.6zm-494.76 785.73c-35.49,-45.67 -27.25,-111.49 18.42,-146.98 45.67,-35.49 111.49,-27.25 146.98,18.42l146.21 187.97 467.06 -456.02c41.37,-40.24 107.56,-39.33 147.8,2.04 40.24,41.37 39.33,107.56 -2.04,147.8l-545.56 532.65c-4.13,4.62 -8.75,8.95 -13.82,12.89 -45.67,35.49 -111.49,27.25 -146.98,-18.42l-218.06 -280.35zm-487.89 -2694.39c425.76,0 770.92,345.15 770.92,770.92 0,425.76 -345.15,770.92 -770.92,770.92 -425.76,0 -770.92,-345.15 -770.92,-770.92 0,-425.76 345.15,-770.92 770.92,-770.92z"/>
  </g>
 </g>
</svg>
