<?xml version="1.0" encoding="UTF-8"?>
<!DOCTYPE svg PUBLIC "-//W3C//DTD SVG 1.0//EN" "http://www.w3.org/TR/2001/REC-SVG-20010904/DTD/svg10.dtd">
<!-- Creator: CorelDRAW 2021.5 -->
<svg xmlns="http://www.w3.org/2000/svg" xml:space="preserve" width="4.3522cm" height="4.3522cm" version="1.0" style="shape-rendering:geometricPrecision; text-rendering:geometricPrecision; image-rendering:optimizeQuality; fill-rule:evenodd; clip-rule:evenodd"
viewBox="0 0 1061.63 1061.63"
 xmlns:xlink="http://www.w3.org/1999/xlink"
 xmlns:xodm="http://www.corel.com/coreldraw/odm/2003">
 <defs>
  <style type="text/css">
   <![CDATA[
    .fil1 {fill:none}
    .fil0 {fill:url(#id0)}
   ]]>
  </style>
  <linearGradient id="id0" gradientUnits="userSpaceOnUse" x1="782.62" y1="872.42" x2="279.01" y2="189.21">
   <stop offset="0" style="stop-opacity:1; stop-color:#1649D8"/>
   <stop offset="1" style="stop-opacity:1; stop-color:#00A1E6"/>
  </linearGradient>
 </defs>
 <g id="Layer_x0020_1">
  <metadata id="CorelCorpID_0Corel-Layer"/>
  <g id="_1671644406512">
   <path class="fil0" d="M363.86 409.55c-11.5,-14.79 -8.83,-36.11 5.97,-47.61 14.79,-11.5 36.11,-8.83 47.61,5.97l47.35 60.88 151.27 -147.69c13.4,-13.03 34.84,-12.74 47.87,0.66 13.03,13.4 12.74,34.84 -0.66,47.87l-176.69 172.51c-1.34,1.5 -2.84,2.9 -4.48,4.18 -14.79,11.5 -36.11,8.83 -47.61,-5.97l-70.62 -90.8zm-41.7 332.69l157.67 0 -15.22 55.01 -142.44 0c-15.13,0 -27.51,-12.38 -27.51,-27.51l0 -0c0,-15.13 12.38,-27.51 27.51,-27.51zm0 -132.16l268.32 0 -65.48 55.01 -202.84 0c-15.13,0 -27.51,-12.38 -27.51,-27.51l0 -0c0,-15.13 12.38,-27.51 27.51,-27.51zm221.45 113.14l-26.58 96.07 99.21 -9.62 17.97 -15.09 -72.63 -86.45 -17.97 15.09zm377.63 -287.71l43.52 51.8c8.01,9.53 6.76,23.88 -2.77,31.88l-305.01 256.26 -72.63 -86.45 305.01 -256.26c9.53,-8.01 23.88,-6.76 31.88,2.77zm-790.61 252.72l45.57 0 0 -99.4 -45.57 0c-21.48,0 -39.05,-17.57 -39.05,-39.05l0 -37.94c0,-21.48 17.57,-39.05 39.05,-39.05l45.57 0 0 -99.4 -45.57 0c-21.48,0 -39.05,-17.57 -39.05,-39.05l0 -37.93c0,-21.48 17.57,-39.05 39.05,-39.05l45.57 0 0 -21.23c0,-33.42 13.65,-63.77 35.64,-85.76 21.99,-21.99 52.34,-35.64 85.76,-35.64l435.09 0c33.41,0 63.77,13.65 85.76,35.64 21.99,21.99 35.64,52.35 35.64,85.76l0 152.49c-0.33,0.27 -0.66,0.54 -0.99,0.81l-55.59 46.71 0 -200c0,-17.8 -7.3,-34 -19.06,-45.76 -11.76,-11.76 -27.96,-19.07 -45.76,-19.07l-435.09 0c-17.8,0 -34,7.3 -45.76,19.07 -11.76,11.76 -19.06,27.96 -19.06,45.76l0 589.37c0,17.8 7.3,34 19.06,45.76 11.76,11.76 27.96,19.07 45.76,19.07l435.09 0c17.79,0 34,-7.3 45.76,-19.07 11.76,-11.76 19.06,-27.96 19.06,-45.76l0 -94.36 56.58 -47.53 0 141.89c0,33.42 -13.65,63.77 -35.64,85.76 -21.99,21.99 -52.35,35.64 -85.76,35.64l-435.09 0c-33.42,0 -63.78,-13.65 -85.76,-35.64 -21.99,-21.99 -35.64,-52.35 -35.64,-85.76l0 -21.23 -45.57 0c-21.48,0 -39.05,-17.57 -39.05,-39.05l0 -37.93c0,-21.48 17.57,-39.05 39.05,-39.05z"/>
   <rect class="fil1" width="1061.63" height="1061.63"/>
  </g>
 </g>
</svg>
