<?xml version="1.0" encoding="UTF-8"?>
<!DOCTYPE svg PUBLIC "-//W3C//DTD SVG 1.0//EN" "http://www.w3.org/TR/2001/REC-SVG-20010904/DTD/svg10.dtd">
<!-- Creator: CorelDRAW 2021.5 -->
<svg xmlns="http://www.w3.org/2000/svg" xml:space="preserve" width="2.0814cm" height="2.0814cm" version="1.0" style="shape-rendering:geometricPrecision; text-rendering:geometricPrecision; image-rendering:optimizeQuality; fill-rule:evenodd; clip-rule:evenodd"
viewBox="0 0 403.1 403.1"
 xmlns:xlink="http://www.w3.org/1999/xlink"
 xmlns:xodm="http://www.corel.com/coreldraw/odm/2003">
 <defs>
  <style type="text/css">
   <![CDATA[
    .fil0 {fill:none}
    .fil2 {fill:#FEFEFE}
    .fil1 {fill:#626262}
    .fil3 {fill:#FEFEFE;fill-rule:nonzero}
   ]]>
  </style>
 </defs>
 <g id="Layer_x0020_1">
  <metadata id="CorelCorpID_0Corel-Layer"/>
  <g id="_2186917478016">
   <g>
    <rect class="fil0" x="-0" y="-0" width="403.1" height="403.1"/>
   </g>
   <g>
    <g>
     <path class="fil1" d="M251.08 112.11l40.35 39.75 -38.89 39.48c-20.46,-1.32 -41.35,5.92 -56.86,21.67 -15.51,15.75 -22.44,36.75 -20.81,57.19l-19.91 20.22 -40.35 -39.75 136.47 -138.55z"/>
     <path class="fil1" d="M142.02 263.2c19.84,19.54 20.08,51.47 0.54,71.31 -19.54,19.84 -51.47,20.08 -71.31,0.54 -19.84,-19.54 -20.08,-51.47 -0.54,-71.31 19.55,-19.84 51.47,-20.08 71.31,-0.54z"/>
     <path class="fil1" d="M345.45 111.51c2.31,14.52 2.59,30.17 -4.77,39.67 -24.14,31.2 -61.37,33.16 -88.35,6.58 -26.98,-26.58 -38.17,-58.3 -9.24,-87.67 27.86,-22.11 50.93,-19.04 70.68,-8.3l-33.31 21.22c-10.21,6.51 -13.25,20.19 -6.74,30.4l8.01 12.57c6.51,10.21 20.19,13.25 30.4,6.74l33.32 -21.22z"/>
     <polygon class="fil2" points="134.79,270.54 125.39,293.94 145.46,309.21 120.49,312.78 117.31,337.8 101.74,317.96 78.47,327.71 87.87,304.3 67.8,289.03 92.77,285.47 95.95,260.45 111.52,280.29 "/>
    </g>
    <circle class="fil1" transform="matrix(0.299335 0.294849 -0.294849 0.299335 247.816 264.362)" r="140.17"/>
    <path class="fil3" d="M251.83 243.4c-1.79,0 -3.24,1.45 -3.24,3.24l0 16.22c0,0.86 0.34,1.68 0.95,2.29l9.73 9.73c0.6,0.58 1.41,0.91 2.25,0.91 1.79,0 3.24,-1.45 3.24,-3.24 0,-0.84 -0.33,-1.65 -0.91,-2.25l-8.78 -8.78 0 -14.88c0,-1.79 -1.45,-3.24 -3.24,-3.24l0 0zm38.32 13.4c-2.98,-18.91 -19.3,-32.86 -38.45,-32.86 -10.16,0 -19.92,3.98 -27.19,11.07l0 -7.84c0,-1.79 -1.45,-3.24 -3.24,-3.24 -1.79,0 -3.24,1.45 -3.24,3.24l0 12.98c0,3.58 2.91,6.49 6.49,6.49l12.98 0c1.79,0 3.24,-1.45 3.24,-3.24 0,-1.79 -1.45,-3.24 -3.24,-3.24l-8.92 0c6.08,-6.18 14.41,-9.67 23.09,-9.67 17.89,0 32.41,14.51 32.41,32.41 0,17.89 -14.51,32.41 -32.41,32.41 -16.81,0 -30.83,-12.85 -32.28,-29.59 -0.17,-1.62 -1.54,-2.85 -3.17,-2.85 -0.02,0 -0.03,0 -0.05,0 -1.8,0 -3.26,1.47 -3.26,3.27 0,0.1 0,0.2 0.01,0.3 1.97,19.91 18.73,35.08 38.74,35.08 21.5,0 38.93,-17.43 38.93,-38.93 0,-1.93 -0.15,-3.88 -0.43,-5.79l0.01 0.01z"/>
    <path class="fil3" d="M251.83 245.26c-0.38,0 -0.73,0.15 -0.98,0.4 -0.25,0.25 -0.4,0.59 -0.4,0.98l0 16.22c0,0.19 0.03,0.37 0.1,0.53 0.07,0.16 0.17,0.32 0.3,0.45l9.73 9.73c0.12,0.12 0.26,0.21 0.41,0.27 0.16,0.06 0.34,0.1 0.52,0.1 0.38,0 0.73,-0.15 0.97,-0.4 0.25,-0.25 0.4,-0.59 0.4,-0.98 0,-0.19 -0.03,-0.37 -0.1,-0.52 -0.06,-0.15 -0.15,-0.29 -0.26,-0.41l-9.33 -9.33 0 -15.65c0,-0.38 -0.15,-0.73 -0.4,-0.98 -0.25,-0.25 -0.6,-0.4 -0.98,-0.4zm-3.61 -2.23c0.92,-0.92 2.2,-1.5 3.61,-1.5 1.41,0 2.69,0.57 3.61,1.5 0.92,0.93 1.5,2.21 1.5,3.61l0 14.1 8.26 8.26c0.46,0.47 0.81,1.03 1.06,1.64 0.24,0.6 0.38,1.25 0.38,1.91 0,1.41 -0.57,2.69 -1.5,3.61 -0.92,0.92 -2.2,1.5 -3.61,1.5 -0.65,0 -1.3,-0.13 -1.91,-0.38 -0.61,-0.24 -1.16,-0.6 -1.63,-1.06l-9.76 -9.76c-0.47,-0.47 -0.85,-1.04 -1.11,-1.66 -0.26,-0.62 -0.39,-1.28 -0.39,-1.95l0 -16.22c0,-1.41 0.57,-2.69 1.5,-3.61zm39.96 13.26c-1.56,-8.66 -6.08,-16.19 -12.4,-21.6 -6.51,-5.57 -14.96,-8.88 -24.08,-8.88 -4.84,0 -9.58,0.95 -13.98,2.74 -4.4,1.79 -8.46,4.43 -11.91,7.8l-3.15 3.08 0 -12.25c-0.01,-0.39 -0.16,-0.73 -0.41,-0.98 -0.25,-0.25 -0.6,-0.4 -0.98,-0.4 -0.38,0 -0.73,0.15 -0.97,0.4 -0.25,0.25 -0.4,0.59 -0.4,0.98l0 12.98c0,1.28 0.52,2.44 1.35,3.27 0.84,0.83 1.99,1.35 3.27,1.35l12.98 0c0.38,0.01 0.72,-0.15 0.98,-0.4 0.25,-0.25 0.4,-0.59 0.4,-0.98 0,-0.38 -0.15,-0.73 -0.4,-0.98 -0.25,-0.25 -0.59,-0.4 -0.98,-0.4l-13.37 0 3.12 -3.17c3.22,-3.27 7.03,-5.83 11.18,-7.56 4.15,-1.74 8.65,-2.66 13.23,-2.66 9.46,0 18.03,3.84 24.23,10.04 6.2,6.2 10.04,14.77 10.04,24.23 0,9.46 -3.84,18.03 -10.04,24.23 -6.2,6.2 -14.77,10.04 -24.23,10.04 -8.88,0 -17.03,-3.4 -23.15,-9.02 -6.13,-5.61 -10.22,-13.44 -10.99,-22.28 -0.04,-0.32 -0.2,-0.6 -0.43,-0.81 -0.23,-0.21 -0.54,-0.34 -0.89,-0.34l-0.05 0c-0.38,-0.01 -0.73,0.15 -0.99,0.41 -0.25,0.25 -0.41,0.6 -0.41,1l0.01 0.17c0.95,9.46 5.4,17.79 11.99,23.76 6.6,5.98 15.36,9.59 24.89,9.59 10.23,0 19.5,-4.15 26.21,-10.86 6.71,-6.71 10.86,-15.97 10.86,-26.21 0,-0.94 -0.03,-1.86 -0.1,-2.75 -0.07,-0.93 -0.17,-1.86 -0.31,-2.77l-0.12 -0.78zm-9.98 -24.42c7.17,6.13 12.23,14.74 13.79,24.65l0.48 3.01 -0.15 -0.05 0.01 0.08c0.08,1.03 0.12,2.04 0.12,3.03 0,11.26 -4.57,21.46 -11.95,28.84 -7.38,7.38 -17.58,11.95 -28.84,11.95 -10.48,0 -20.1,-3.98 -27.38,-10.56 -7.27,-6.58 -12.18,-15.77 -13.21,-26.2 -0.02,-0.15 -0,-0.35 -0.03,-0.48 0,-1.41 0.57,-2.69 1.5,-3.62 0.92,-0.93 2.21,-1.5 3.62,-1.51l0.05 -0.01c1.29,0 2.48,0.49 3.38,1.3 0.9,0.8 1.5,1.93 1.64,3.22l0.01 0.04c0.69,7.89 4.33,14.87 9.78,19.86 5.45,5 12.72,8.03 20.65,8.03 8.43,0 16.07,-3.42 21.6,-8.95 5.53,-5.53 8.95,-13.16 8.95,-21.6 0,-8.43 -3.42,-16.07 -8.95,-21.6 -5.53,-5.53 -13.16,-8.95 -21.6,-8.95 -4.09,0 -8.11,0.82 -11.8,2.37 -2.23,0.93 -4.34,2.13 -6.3,3.57l3.94 0c1.4,0 2.68,0.57 3.6,1.5 0.93,0.92 1.5,2.2 1.5,3.61 0,1.41 -0.57,2.69 -1.5,3.61 -0.92,0.92 -2.2,1.49 -3.61,1.49l-12.98 0.01c-2.3,0 -4.39,-0.94 -5.9,-2.45 -1.51,-1.52 -2.45,-3.61 -2.45,-5.9l0 -12.98c0,-1.41 0.57,-2.69 1.5,-3.61 0.92,-0.92 2.2,-1.5 3.61,-1.5 1.41,0 2.69,0.57 3.61,1.5 0.92,0.93 1.5,2.21 1.5,3.61l-0.01 3.73c3.04,-2.41 6.4,-4.36 9.96,-5.81 4.84,-1.97 10.06,-3.01 15.38,-3.01 10.03,0 19.32,3.65 26.5,9.79z"/>
   </g>
  </g>
 </g>
</svg>
