<?xml version="1.0" encoding="UTF-8"?>
<!DOCTYPE svg PUBLIC "-//W3C//DTD SVG 1.0//EN" "http://www.w3.org/TR/2001/REC-SVG-20010904/DTD/svg10.dtd">
<!-- Creator: CorelDRAW 2021.5 -->
<svg xmlns="http://www.w3.org/2000/svg" xml:space="preserve" width="4.3522cm" height="4.3522cm" version="1.0" style="shape-rendering:geometricPrecision; text-rendering:geometricPrecision; image-rendering:optimizeQuality; fill-rule:evenodd; clip-rule:evenodd"
viewBox="0 0 1161.37 1161.37"
 xmlns:xlink="http://www.w3.org/1999/xlink"
 xmlns:xodm="http://www.corel.com/coreldraw/odm/2003">
 <defs>
  <style type="text/css">
   <![CDATA[
    .fil0 {fill:none}
    .fil1 {fill:url(#id0)}
   ]]>
  </style>
  <linearGradient id="id0" gradientUnits="userSpaceOnUse" x1="592.69" y1="1044.79" x2="354.07" y2="627.52">
   <stop offset="0" style="stop-opacity:1; stop-color:#1649D8"/>
   <stop offset="1" style="stop-opacity:1; stop-color:#00A1E6"/>
  </linearGradient>
 </defs>
 <g id="Layer_x0020_1">
  <metadata id="CorelCorpID_0Corel-Layer"/>
  <g id="_1707761594336">
   <rect class="fil0" width="1161.37" height="1161.37"/>
   <path class="fil1" d="M208.96 1054.66l181.71 0 380.04 0 181.71 0c18.09,0 32.9,-18.35 32.9,-40.76l0 -155.08c0,-164.53 -204.68,-244.86 -404.63,-241.04 -199.95,-3.82 -404.63,76.52 -404.63,241.04l0 155.08c0,22.42 14.81,40.76 32.9,40.76zm371.73 -947.95c118.43,0 214.45,96.01 214.45,214.45 0,118.43 -96.01,214.45 -214.45,214.45 -118.43,0 -214.45,-96.01 -214.45,-214.45 0,-118.43 96.01,-214.45 214.45,-214.45z"/>
  </g>
 </g>
</svg>
