<?xml version="1.0" encoding="UTF-8"?>
<!DOCTYPE svg PUBLIC "-//W3C//DTD SVG 1.0//EN" "http://www.w3.org/TR/2001/REC-SVG-20010904/DTD/svg10.dtd">
<!-- Creator: CorelDRAW 2021.5 -->
<svg xmlns="http://www.w3.org/2000/svg" xml:space="preserve" width="4.3522cm" height="4.3522cm" version="1.0" style="shape-rendering:geometricPrecision; text-rendering:geometricPrecision; image-rendering:optimizeQuality; fill-rule:evenodd; clip-rule:evenodd"
viewBox="0 0 1030.53 1030.53"
 xmlns:xlink="http://www.w3.org/1999/xlink"
 xmlns:xodm="http://www.corel.com/coreldraw/odm/2003">
 <defs>
  <style type="text/css">
   <![CDATA[
    .fil0 {fill:none}
    .fil1 {fill:url(#id0)}
   ]]>
  </style>
  <linearGradient id="id0" gradientUnits="userSpaceOnUse" x1="753.56" y1="876.12" x2="276.97" y2="154.42">
   <stop offset="0" style="stop-opacity:1; stop-color:#1649D8"/>
   <stop offset="1" style="stop-opacity:1; stop-color:#00A1E6"/>
  </linearGradient>
 </defs>
 <g id="Layer_x0020_1">
  <metadata id="CorelCorpID_0Corel-Layer"/>
  <g id="_1707692560096">
   <rect class="fil0" width="1030.53" height="1030.53"/>
   <path class="fil1" d="M33.36 291.13l178.54 -184.85 0 94.5 252.27 0 0 46.1c-80.37,15.21 -148.28,65.62 -187.11,134.59l-65.17 0 0 94.5 -178.54 -184.85zm481.91 -7.72c128.05,0 231.86,103.81 231.86,231.86 0,128.05 -103.81,231.86 -231.86,231.86 -128.05,0 -231.86,-103.81 -231.86,-231.86 0,-128.05 103.81,-231.86 231.86,-231.86zm-71.92 227.05l30.85 0c24.58,0 40.09,-8.7 46.48,-26.04l-85.73 0 0 -29.2 87.01 0c-2.25,-7.48 -6.75,-13.51 -13.57,-18.13 -6.75,-4.56 -15.7,-6.81 -26.71,-6.81l-46.73 0 0 -29.45 160.63 0 0 29.45 -44.23 0c5.96,7.61 9.68,15.88 11.26,24.95l32.97 0 0 29.2 -33.71 0c-3.65,16.67 -11.86,29.75 -24.52,39.24 -12.66,9.49 -26.95,14.6 -42.83,15.33l79.83 89.14 -0.36 1.58 -46.3 0 -84.33 -94.49 0 -24.76zm553.82 228.94l-178.54 -184.85 0 94.5 -65.17 0c-38.82,68.98 -106.74,119.38 -187.1,134.59l0 46.1 252.27 0 0 94.5 178.54 -184.85z"/>
  </g>
 </g>
</svg>
